HIERARCHY
ROOT Hips
{
	OFFSET 50.979198 -5.771154 86.853996
	CHANNELS 6 Xposition Yposition Zposition Xrotation Yrotation Zrotation
	JOINT spine
	{
		OFFSET 0.000000 -0.393701 6.846367
		CHANNELS 3 Xrotation Yrotation Zrotation
		JOINT spine1
		{
			OFFSET 0.000000 -0.000001 9.496208
			CHANNELS 3 Xrotation Yrotation Zrotation
			JOINT spine2
			{
				OFFSET 0.000000 -0.000001 9.099091
				CHANNELS 3 Xrotation Yrotation Zrotation
				JOINT Neck
				{
					OFFSET 0.000000 -1.113784 23.361198
					CHANNELS 3 Xrotation Yrotation Zrotation
					JOINT Head
					{
						OFFSET 0.000000 -0.000001 7.058014
						CHANNELS 3 Xrotation Yrotation Zrotation
						End Site
						{
							OFFSET 0.000000 5.634188 17.084396
						}
					}
				}
				JOINT RightShoulder
				{
					OFFSET -3.831360 0.533489 9.826309
					CHANNELS 3 Xrotation Yrotation Zrotation
					JOINT RightArm
					{
						OFFSET 0.000000 -0.000002 12.888100
						CHANNELS 3 Xrotation Yrotation Zrotation
						JOINT RightArmRoll
						{
							OFFSET 0.000000 -0.000001 6.506165
							CHANNELS 3 Xrotation Yrotation Zrotation
							JOINT RightForeArm
							{
								OFFSET 0.000000 -0.000003 18.950104
								CHANNELS 3 Xrotation Yrotation Zrotation
								JOINT RightForeArmRoll
								{
									OFFSET 0.000000 -0.000001 7.300919
									CHANNELS 3 Xrotation Yrotation Zrotation
									JOINT RightHand
									{
										OFFSET 0.000000 -0.000002 14.651398
										CHANNELS 3 Xrotation Yrotation Zrotation
										End Site
										{
											OFFSET 0.000000 0.000000 0.100006
										}
									}
								}
							}
						}
					}
				}
				JOINT LeftShoulder
				{
					OFFSET 3.831360 0.533489 9.826309
					CHANNELS 3 Xrotation Yrotation Zrotation
					JOINT LeftArm
					{
						OFFSET 0.000000 -0.000002 12.888100
						CHANNELS 3 Xrotation Yrotation Zrotation
						JOINT LeftArmRoll
						{
							OFFSET 0.000000 -0.000001 6.506165
							CHANNELS 3 Xrotation Yrotation Zrotation
							JOINT LeftForeArm
							{
								OFFSET 0.000000 -0.000003 18.950104
								CHANNELS 3 Xrotation Yrotation Zrotation
								JOINT LeftForeArmRoll
								{
									OFFSET 0.000000 -0.000001 7.300934
									CHANNELS 3 Xrotation Yrotation Zrotation
									JOINT LeftHand
									{
										OFFSET 0.000000 -0.000002 14.651398
										CHANNELS 3 Xrotation Yrotation Zrotation
										End Site
										{
											OFFSET 0.000000 0.000000 0.100006
										}
									}
								}
							}
						}
					}
				}
			}
		}
	}
	JOINT RightUpLeg
	{
		OFFSET -6.068371 0.933477 -1.112778
		CHANNELS 3 Xrotation Yrotation Zrotation
		JOINT RightUpLegRoll
		{
			OFFSET 0.000000 -0.000003 17.179604
			CHANNELS 3 Xrotation Yrotation Zrotation
			JOINT RightLeg
			{
				OFFSET 0.000000 0.000003 -21.274300
				CHANNELS 3 Xrotation Yrotation Zrotation
				JOINT RightLegRoll
				{
					OFFSET 0.000000 -0.000003 21.343903
					CHANNELS 3 Xrotation Yrotation Zrotation
					JOINT RightFoot
					{
						OFFSET 0.000000 -0.000003 17.765198
						CHANNELS 3 Xrotation Yrotation Zrotation
						JOINT RightToeBase
						{
							OFFSET 0.000000 -0.000002 14.850792
							CHANNELS 3 Xrotation Yrotation Zrotation
							End Site
							{
								OFFSET 0.006294 0.829003 7.192123
							}
						}
					}
				}
			}
		}
	}
	JOINT LeftUpLeg
	{
		OFFSET 6.068371 0.933477 -1.112778
		CHANNELS 3 Xrotation Yrotation Zrotation
		JOINT LeftUpLegRoll
		{
			OFFSET 0.000000 -0.000003 17.179703
			CHANNELS 3 Xrotation Yrotation Zrotation
			JOINT LeftLeg
			{
				OFFSET 0.000000 -0.000003 21.274200
				CHANNELS 3 Xrotation Yrotation Zrotation
				JOINT LeftLegRoll
				{
					OFFSET 0.000000 -0.000004 21.541206
					CHANNELS 3 Xrotation Yrotation Zrotation
					JOINT LeftFoot
					{
						OFFSET 0.000000 -0.000003 17.567902
						CHANNELS 3 Xrotation Yrotation Zrotation
						JOINT LeftToeBase
						{
							OFFSET 0.000000 -0.000002 14.850800
							CHANNELS 3 Xrotation Yrotation Zrotation
							End Site
							{
								OFFSET -0.028210 0.829003 7.192139
							}
						}
					}
				}
			}
		}
	}
}
MOTION
Frames: 5
Frame Time: 0.041667
52.344299 -3.784772 86.572411 -2.105532 -0.362765 -2.303567 -1.559990 -1.377979 0.997666 0.907031 -2.779212 1.972043 2.552493 -2.755399 2.005194 12.909290 21.599392 -6.564610 11.498766 -19.137934 -4.631617 -8.733517 -48.928405 -9.564447 -59.004474 -124.312148 -48.534235 -0.000000 -0.000002 -0.000002 0.158556 -19.756136 -0.208246 -0.000006 0.000001 -3.068080 -5.000213 -7.999193 0.000116 -29.775913 73.261558 34.190793 -83.011264 116.475817 59.146583 0.000002 0.000012 -0.000001 0.138929 17.651154 -0.578448 -0.000001 -0.000008 3.024850 -5.000211 7.999003 -0.000137 -14.759055 -178.137508 -1.537141 -179.999991 0.000005 -1.139994 155.793637 -3.643821 -1.309538 -0.000003 0.000002 0.561315 71.957614 7.236234 0.940542 25.456952 -7.355614 0.000011 -11.866821 179.246458 1.032082 -0.000003 -0.000004 -1.094310 -25.291861 1.522332 1.108953 0.000002 0.000001 -0.690079 75.742830 -6.543647 -2.669249 25.456959 7.355614 -0.000001 
52.337002 -3.791144 86.581108 -2.116841 -0.363545 -2.314087 -1.557660 -1.378581 0.999406 0.911753 -2.780989 1.975570 2.557212 -2.757126 2.008740 12.903934 21.592743 -6.565956 11.490047 -19.134645 -4.635640 -8.744048 -48.924095 -9.577358 -58.946773 -124.294266 -48.586520 -0.000002 -0.000002 -0.000002 0.158757 -19.794838 -0.177016 -0.000005 0.000001 -3.066200 -5.000214 -7.999193 0.000116 -29.752731 73.258335 34.165665 -82.985193 116.469642 59.142786 0.000002 0.000014 0.000000 0.138929 17.668755 -0.582662 -0.000000 -0.000008 3.024688 -5.000212 7.999003 -0.000137 -14.749052 -178.137426 -1.540776 -179.999991 0.000005 -1.139994 155.789921 -3.637318 -1.309898 -0.000002 0.000002 0.561313 71.959581 7.234341 0.946213 25.456959 -7.355614 0.000010 -11.846722 179.245419 1.027862 -0.000003 -0.000004 -1.094310 -25.286882 1.524058 1.108904 0.000002 0.000001 -0.690079 75.746818 -6.543701 -2.668623 25.456960 7.355613 -0.000001 
52.340500 -3.792736 86.574402 -2.128553 -0.364287 -2.324739 -1.555240 -1.379192 1.001217 0.916652 -2.782846 1.979248 2.562112 -2.758944 2.012426 12.898693 21.586091 -6.567501 11.481104 -19.131175 -4.639861 -8.754972 -48.919758 -9.590743 -58.888586 -124.276084 -48.637538 -0.000002 -0.000002 -0.000002 0.158947 -19.833734 -0.146066 0.000000 0.000002 -3.064320 -5.000219 -7.999194 0.000116 -29.728815 73.254995 34.139758 -82.958590 116.463099 59.139125 0.000003 0.000012 -0.000001 0.138926 17.686852 -0.586996 0.000002 -0.000007 3.024521 -5.000212 7.999002 -0.000139 -14.738846 -178.137330 -1.544584 -179.999991 0.000005 -1.139995 155.785796 -3.630816 -1.310303 -0.000003 0.000002 0.561310 71.961828 7.232340 0.952049 25.456959 -7.355614 0.000010 -11.825825 179.244381 1.023394 -0.000004 -0.000004 -1.094310 -25.281899 1.525848 1.108824 0.000003 0.000001 -0.690079 75.751046 -6.543772 -2.668087 25.456957 7.355614 -0.000001 
52.354500 -3.785854 86.578011 -2.140535 -0.364999 -2.335493 -1.552762 -1.379824 1.003080 0.921678 -2.784751 1.983012 2.567132 -2.760813 2.016212 12.893441 21.579334 -6.569124 11.471938 -19.127612 -4.644243 -8.766165 -48.915397 -9.604468 -58.831274 -124.257192 -48.689120 0.000001 -0.000001 -0.000001 0.159143 -19.872635 -0.115308 -0.000002 0.000001 -3.062450 -5.000217 -7.999192 0.000116 -29.704619 73.251702 34.113537 -82.931501 116.456283 59.135320 0.000001 0.000013 0.000000 0.138927 17.705256 -0.591421 0.000002 -0.000007 3.024351 -5.000211 7.999004 -0.000138 -14.728331 -178.138205 -1.548259 -179.999991 0.000005 -1.139994 155.781466 -3.624309 -1.309707 -0.000004 0.000002 0.561307 71.964260 7.230270 0.958161 25.456959 -7.355613 0.000010 -11.804528 179.243343 1.018754 -0.000003 -0.000004 -1.094310 -25.277021 1.527682 1.108725 0.000001 0.000001 -0.690079 75.755493 -6.543831 -2.667436 25.456959 7.355615 -0.000001 
52.346600 -3.778874 86.564499 -2.152674 -0.365693 -2.346295 -1.550240 -1.380445 1.004964 0.926773 -2.786696 1.986851 2.572232 -2.762709 2.020063 12.888071 21.572488 -6.570754 11.462774 -19.123956 -4.648684 -8.777509 -48.911026 -9.618378 -58.773689 -124.238163 -48.740093 -0.000001 -0.000002 -0.000002 0.159337 -19.911533 -0.084663 -0.000002 0.000001 -3.060580 -5.000214 -7.999193 0.000116 -29.679907 73.248260 34.086763 -82.904303 116.449289 59.131741 -0.000002 0.000014 0.000000 0.138923 17.723856 -0.595890 0.000004 -0.000008 3.024180 -5.000208 7.999003 -0.000137 -14.717724 -178.138123 -1.552255 -179.999991 0.000005 -1.139995 155.776958 -3.616875 -1.309719 -0.000003 0.000002 0.561303 71.966787 7.228160 0.964262 25.456957 -7.355613 0.000009 -11.783027 179.242305 1.014018 -0.000003 -0.000004 -1.094310 -25.272045 1.529554 1.108615 0.000001 0.000001 -0.690079 75.760028 -6.543876 -2.666877 25.456957 7.355615 -0.000001 
